<?xml version="1.0" standalone="no"?><!DOCTYPE svg PUBLIC "-//W3C//DTD SVG 1.1//EN" "http://www.w3.org/Graphics/SVG/1.1/DTD/svg11.dtd"><svg t="1606007494131" class="icon" viewBox="0 0 1024 1024" version="1.1" xmlns="http://www.w3.org/2000/svg" p-id="2908" xmlns:xlink="http://www.w3.org/1999/xlink" width="200" height="200"><defs><style type="text/css"></style></defs><path d="M486.716049 221.234568c-157.089185 0-284.444444 127.355259-284.444444 284.444444S329.626864 790.123457 486.716049 790.123457 771.160494 662.768198 771.160494 505.679012 643.805235 221.234568 486.716049 221.234568z m0 37.925926c136.154074 0 246.518519 110.364444 246.518519 246.518518S622.870123 752.197531 486.716049 752.197531 240.197531 641.833086 240.197531 505.679012 350.561975 259.160494 486.716049 259.160494z" fill="#6F6D6D" p-id="2909"></path><path d="M669.266173 675.58716a18.962963 18.962963 0 0 1 25.372444-1.314765l1.441185 1.302124 132.740741 132.74074a18.962963 18.962963 0 0 1-25.385086 28.128395l-1.441185-1.302123-132.740741-132.740741a18.962963 18.962963 0 0 1 0-26.826271z" fill="#6F6D6D" p-id="2910"></path></svg>